:version 1.10
:name ASF
:units
  mass 1
  length 1
  angle deg
:documentation
  ASF file generated by Kaydara
:root
  axis xyz
  order  tx ty tz rx ry rz
  position 0 0 0
  orientation 0 0 0
:bonedata
  begin
    id 1
    name RightUpLegDummy
    direction -1 2.30186e-007 8.31532e-007
    length 4.46685
    axis 0 0 0 xyz
  end
  begin
    id 2
    name RightUpLeg
    direction -2.30187e-007 -1 1.24343e-010
    length 16.4045
    axis -3.49089 -0.000906625 0.000286804 xyz
    dof rx ry rz
  end
  begin
    id 3
    name RightLeg
    direction -2.30181e-007 -1 -4.17157e-009
    length 17.5097
    axis 3.68512 0.0193738 -0.131023 xyz
    dof rx ry rz
  end
  begin
    id 4
    name RightFoot
    direction 8.31421e-007 -4.51202e-011 1
    length 6.49508
    axis 4.81691e-005 -0.120479 -0.188788 xyz
    dof rx ry rz
  end
  begin
    id 5
    name RightToes
    direction 0.00124746 -0.014064 0.9999
    length 3.85082
    axis 0.000481921 0.542163 -0.142578 xyz
    dof rx ry rz
  end
  begin
    id 6
    name SpineDummy
    direction 0.0717043 0.9409 -0.331007
    length 10.0032
    axis 0 0 0 xyz
  end
  begin
    id 7
    name Spine
    direction 2.30186e-007 1 4.58806e-011
    length 9.84055
    axis -0.001389 0.000121418 2.40972e-006 xyz
    dof rx ry rz
  end
  begin
    id 8
    name Spine1
    direction 0 0 0
    length 0
    axis -0.001389 0.000121451 1.30017e-006 xyz
    dof rx ry rz
  end
  begin
    id 9
    name HEadDummy
    direction -0.00347485 0.950688 -0.310128
    length 8.00997
    axis -0.001389 0.000121451 1.30017e-006 xyz
  end
  begin
    id 10
    name HEad
    direction -0.0222688 0.980941 0.193023
    length 5.12695
    axis -0.001389 0.000121451 1.30017e-006 xyz
    dof rx ry rz
  end
  begin
    id 11
    name LeftShoulder1Dummy
    direction 0.988871 0.146793 -0.0242004
    length 3.5792
    axis -0.001389 0.000121451 1.30017e-006 xyz
  end
  begin
    id 12
    name LeftShoulder1
    direction 0.993832 0.108932 0.020779
    length 4.16823
    axis -0.001389 0.000121451 1.30017e-006 xyz
    dof rx ry rz
  end
  begin
    id 13
    name LeftArm
    direction 1 3.44807e-006 -8.31404e-007
    length 9.91437
    axis -23.1894 0.134784 0.967509 xyz
    dof rx ry rz
  end
  begin
    id 14
    name LeftForeArm
    direction 1 3.44842e-006 -8.31581e-007
    length 9.08575
    axis -9.91835 -0.06569 -0.177793 xyz
    dof rx ry rz
  end
  begin
    id 15
    name LeftHand
    direction 0.992938 -0.0411636 0.11126
    length 5.32135
    axis -0.00960232 -0.00340091 0.185173 xyz
    dof rx ry rz
  end
  begin
    id 16
    name RightShoulderDummy
    direction -0.988871 0.146793 -0.0241962
    length 3.5792
    axis -0.001389 0.000121451 1.30017e-006 xyz
  end
  begin
    id 17
    name RightShoulder
    direction -0.993832 0.108933 0.0207785
    length 4.16823
    axis 0.215806 0.000203643 -0.0068026 xyz
    dof rx ry rz
  end
  begin
    id 18
    name RightArm
    direction -1 3.90912e-006 8.31284e-007
    length 9.91437
    axis -23.2009 -0.134239 -0.964101 xyz
    dof rx ry rz
  end
  begin
    id 19
    name RightForeArm
    direction -1 3.90882e-006 8.31502e-007
    length 9.08575
    axis -9.92322 0.0658061 0.178867 xyz
    dof rx ry rz
  end
  begin
    id 20
    name RightHand
    direction -0.992843 -0.0414603 0.112003
    length 5.28593
    axis -0.00960638 0.00330671 -0.185228 xyz
    dof rx ry rz
  end
  begin
    id 21
    name LeftUpLegDummy
    direction 1 -2.30186e-007 -8.31532e-007
    length 4.46685
    axis 0 0 0 xyz
  end
  begin
    id 22
    name LeftUpLeg
    direction -2.30187e-007 -1 6.00931e-010
    length 16.4045
    axis -3.48766 0.00143442 -0.000524262 xyz
    dof rx ry rz
  end
  begin
    id 23
    name LeftLeg
    direction -2.30187e-007 -1 1.6669e-009
    length 17.5097
    axis 3.68178 -0.00654042 -0.000285133 xyz
    dof rx ry rz
  end
  begin
    id 24
    name LeftFoot
    direction 8.31532e-007 -4.54478e-011 1
    length 6.49508
    axis 1.87233e-006 4.66016e-005 -8.6538e-006 xyz
    dof rx ry rz
  end
  begin
    id 25
    name LeftToes
    direction 0.00818058 -0.00485161 0.999955
    length 3.85048
    axis 1.06247e-005 4.65869e-005 -8.65513e-006 xyz
    dof rx ry rz
  end
:hierarchy
  begin
    root RightUpLegDummy SpineDummy LeftUpLegDummy
    RightUpLegDummy RightUpLeg
    RightUpLeg RightLeg
    RightLeg RightFoot
    RightFoot RightToes
    SpineDummy Spine
    Spine Spine1
    Spine1 HEadDummy LeftShoulder1Dummy RightShoulderDummy
    HEadDummy HEad
    LeftShoulder1Dummy LeftShoulder1
    LeftShoulder1 LeftArm
    LeftArm LeftForeArm
    LeftForeArm LeftHand
    RightShoulderDummy RightShoulder
    RightShoulder RightArm
    RightArm RightForeArm
    RightForeArm RightHand
    LeftUpLegDummy LeftUpLeg
    LeftUpLeg LeftLeg
    LeftLeg LeftFoot
    LeftFoot LeftToes
  end

:SAMPLES-PER-SECOND 30
:FULLY-SPECIFIED
:DEGREES
201
root  -39.7283 24.7308 -6.05719 25.935 -0.925293 -1.69841
RightUpLeg  -53.4235 -2.56949 -25.5485
RightLeg  73.9985 2.11427 5.6645
RightFoot  -23.4619 -0.0651348 0.0638808
RightToes  -66.5856 -0.457542 -0.411577
Spine  21.2509 2.05952 2.16295
Spine1  36.3956 7.89226 -0.30087
HEad  4.82048 -11.5026 13.651
LeftShoulder1  0 -2.42657e-020 -4.95415e-022
LeftArm  -32.543 -25.6969 -88.8222
LeftForeArm  19.9106 -39.153 -8.25516
LeftHand  -0.254031 -2.81689 9.95856
RightShoulder  0 2.42657e-020 1.07489e-018
RightArm  -35.4703 35.5312 61.4084
RightForeArm  62.9754 44.4915 9.93022
RightHand  -6.47573 18.4142 -38.1211
LeftUpLeg  -75.3018 -0.848235 33.1718
LeftLeg  69.8734 -2.76624 -6.25784
LeftFoot  -5.18183 -0.0598012 -1.3215
LeftToes  -51.3949 2.34596e-006 -6.06653e-008
202
root  -39.6459 24.3129 -6.19578 27.6996 0.370972 -1.29135
RightUpLeg  -54.4732 -0.620628 -27.3215
RightLeg  74.8324 1.45722 4.01979
RightFoot  -25.5331 0.0776964 0.720476
RightToes  -66.2879 -0.454665 -0.41371
Spine  21.5173 2.37277 2.58475
Spine1  36.9234 8.91614 -0.376073
HEad  3.1299 -10.3927 10.9014
LeftShoulder1  0 -2.42657e-020 -4.95415e-022
LeftArm  -31.1606 -26.2321 -90.3888
LeftForeArm  20.7956 -40.8241 -8.76517
LeftHand  -0.262438 -2.97036 9.74872
RightShoulder  0 2.42657e-020 1.07489e-018
RightArm  -31.2603 37.3474 62.295
RightForeArm  73.1657 39.4424 8.25619
RightHand  -8.57694 20.1541 -45.3982
LeftUpLeg  -80.3857 -1.71105 33.7261
LeftLeg  73.5224 -1.46589 -4.00487
LeftFoot  -3.65147 -0.0528023 -1.65639
LeftToes  -49.709 2.34596e-006 -6.06653e-008
203
root  -39.4547 23.7329 -6.24568 28.9085 0.856155 -1.30084
RightUpLeg  -55.9724 -0.214878 -27.9211
RightLeg  76.7648 0.424384 1.1125
RightFoot  -27.4616 0.453045 2.23159
RightToes  -64.8139 -0.44045 -0.414973
Spine  22.2061 3.13886 3.04135
Spine1  37.9257 11.2727 -0.725555
HEad  2.15023 -8.75485 8.12851
LeftShoulder1  0 -2.42657e-020 -4.95415e-022
LeftArm  -27.8519 -27.1755 -90.7728
LeftForeArm  20.2343 -41.6721 -9.03401
LeftHand  -0.297519 -2.99959 10.9817
RightShoulder  0 2.42657e-020 1.07489e-018
RightArm  -36.7581 41.374 64.5536
RightForeArm  82.5735 27.6499 5.18325
RightHand  -9.1532 17.3121 -55.1187
LeftUpLeg  -84.7488 -0.745033 32.1254
LeftLeg  78.2409 -0.178713 -0.672019
LeftFoot  -3.85168 -0.0672427 -1.99959
LeftToes  -44.4084 2.34596e-006 -6.06653e-008
204
root  -39.1225 23.3309 -6.13924 29.7012 0.956284 -2.03972
RightUpLeg  -55.4763 0.242894 -28.1711
RightLeg  75.5523 0.125646 0.127877
RightFoot  -29.8936 0.590789 2.59042
RightToes  -63.6395 -0.429173 -0.415628
Spine  22.4076 3.62787 3.60924
Spine1  38.4675 12.3941 -0.12144
HEad  1.39144 -6.17427 3.62669
LeftShoulder1  0 -2.42657e-020 -4.95415e-022
LeftArm  -26.6902 -27.351 -91.4184
LeftForeArm  21.598 -41.097 -8.85111
LeftHand  -0.387785 -3.55985 12.0833
RightShoulder  0 2.42657e-020 1.07489e-018
RightArm  -43.9171 42.5 64.0917
RightForeArm  57.1794 23.5428 4.36116
RightHand  -6.56987 22.4584 -31.8871
LeftUpLeg  -87.4493 1.31613 29.5275
LeftLeg  81.7908 0.526842 2.46764
LeftFoot  -4.53542 -0.0888536 -2.24352
LeftToes  -41.8294 2.34596e-006 -6.06653e-008
205
root  -38.4955 23.07 -5.87378 29.8337 0.152939 -2.8584
RightUpLeg  -54.5127 -0.129656 -28.6294
RightLeg  73.821 0.273417 0.533275
RightFoot  -30.4384 0.522823 2.2992
RightToes  -63.775 -0.430472 -0.415933
Spine  22.2493 4.01725 4.02062
Spine1  38.4183 13.003 0.767407
HEad  1.99631 -3.59343 -0.539148
LeftShoulder1  0 -2.42657e-020 -4.95415e-022
LeftArm  -25.6265 -26.3261 -91.3526
LeftForeArm  22.2588 -40.1023 -8.54203
LeftHand  -0.448885 -3.86628 12.8932
RightShoulder  0 2.42657e-020 1.07489e-018
RightArm  -57.8055 42.0627 62.7856
RightForeArm  30.3216 17.0815 3.09993
RightHand  -3.3284 22.5338 -16.2293
LeftUpLeg  -88.2615 2.61554 28.1821
LeftLeg  84.3642 0.384577 2.30067
LeftFoot  -6.26482 -0.135659 -2.47852
LeftToes  -43.09 2.34596e-006 -6.06653e-008
